<?xml version="1.0" standalone="no"?>
<!DOCTYPE svg PUBLIC "-//W3C//DTD SVG 20010904//EN"
 "http://www.w3.org/TR/2001/REC-SVG-20010904/DTD/svg10.dtd">
<svg version="1.0" xmlns="http://www.w3.org/2000/svg"
 width="256.000000pt" height="256.000000pt" viewBox="0 0 256.000000 256.000000"
 preserveAspectRatio="xMidYMid meet">
<metadata>
Created by potrace 1.16, written by Peter Selinger 2001-2019
</metadata>
<g transform="translate(0.000000,256.000000) scale(0.100000,-0.100000)"
fill="#000000" stroke="none">
<path d="M1028 2541 c-252 -49 -443 -149 -632 -331 -118 -113 -196 -214 -259
-337 -118 -229 -158 -475 -126 -775 58 -532 504 -997 1039 -1083 122 -19 338
-19 460 0 451 72 845 412 995 858 37 111 55 244 55 407 0 290 -58 490 -206
712 -121 181 -309 348 -502 443 -181 89 -297 114 -542 120 -153 4 -202 1 -282
-14z m909 -663 c-72 -131 -567 -1029 -640 -1163 -42 -77 -81 -146 -86 -154 -7
-10 -83 39 -335 220 -180 129 -322 235 -317 237 5 2 123 -10 260 -27 138 -17
272 -31 299 -31 l47 1 80 102 c44 55 191 235 326 399 136 163 279 338 320 387
40 50 75 91 77 91 2 0 -12 -28 -31 -62z"/>
</g>
</svg>
