<?xml version="1.0" standalone="no"?>
<!DOCTYPE svg PUBLIC "-//W3C//DTD SVG 20010904//EN"
 "http://www.w3.org/TR/2001/REC-SVG-20010904/DTD/svg10.dtd">
<svg version="1.0" xmlns="http://www.w3.org/2000/svg"
 width="980.000000pt" height="894.000000pt" viewBox="0 0 980.000000 894.000000"
 preserveAspectRatio="xMidYMid meet">
<metadata>
Created by potrace 1.16, written by Peter Selinger 2001-2019
</metadata>
<g transform="translate(0.000000,894.000000) scale(0.100000,-0.100000)"
fill="#000000" stroke="none">
<path d="M8850 8889 l-145 -40 -687 -687 c-379 -378 -688 -692 -688 -697 0 -6
28 -39 63 -73 l63 -63 675 678 c625 630 889 901 889 917 0 10 -20 6 -170 -35z"/>
<path d="M9124 8406 c-65 -29 -80 -96 -48 -219 8 -33 13 -70 10 -83 -9 -33
-68 -66 -113 -62 l-38 3 -3 68 -3 67 -35 0 c-57 0 -114 -45 -114 -91 0 -5 27
-35 60 -67 33 -32 60 -67 60 -77 0 -35 -79 -115 -115 -115 -3 0 -14 20 -25 45
-21 50 -37 60 -76 51 -54 -14 -103 -105 -75 -140 6 -8 40 -17 74 -20 92 -10
91 -10 84 -111 -7 -98 -30 -158 -63 -163 -12 -2 -43 9 -69 23 -43 22 -51 24
-69 12 -32 -21 -53 -89 -38 -121 10 -24 17 -26 69 -26 32 0 78 5 102 11 57 13
62 7 95 -102 39 -129 42 -125 -81 -136 -92 -8 -108 -18 -108 -73 0 -35 6 -46
30 -66 37 -30 89 -40 118 -25 12 7 37 34 55 61 17 28 36 50 41 50 30 0 225
-104 269 -143 29 -27 28 -40 -14 -127 -31 -65 -34 -77 -22 -98 17 -33 86 -71
141 -78 119 -17 153 104 48 170 -82 52 -92 106 -26 143 45 24 154 49 177 40 9
-3 23 -28 33 -56 19 -60 36 -75 81 -75 25 0 43 9 69 34 56 54 45 121 -23 136
-90 20 -98 35 -57 116 49 98 68 106 131 58 21 -16 47 -30 57 -30 67 -1 116
111 67 155 -19 17 -58 17 -166 -1 l-32 -6 -4 109 c-3 61 0 113 5 121 13 16 82
15 116 -2 24 -13 31 -13 49 0 27 18 45 76 37 114 -7 32 -51 74 -71 66 -7 -3
-40 -26 -73 -52 -59 -46 -61 -47 -81 -29 -25 23 -43 88 -35 125 8 39 32 57 85
65 66 10 90 29 90 70 0 47 -37 88 -78 88 -39 0 -63 -21 -87 -73 -29 -65 -60
-51 -115 54 l-25 47 22 17 c11 9 44 29 72 44 57 31 63 50 30 91 -25 33 -87 51
-131 39 -32 -8 -33 -9 -38 -76 -7 -95 -26 -107 -113 -74 -34 13 -49 45 -35 73
6 11 32 41 59 67 43 42 49 53 49 88 0 51 -22 96 -52 104 -38 10 -101 6 -134
-8z m136 -501 c11 -10 20 -30 20 -45 0 -51 -94 -66 -156 -25 -27 17 -33 62
-11 84 18 19 121 10 147 -14z m-161 -287 c103 -64 93 -194 -22 -295 -67 -59
-117 -54 -164 16 -38 57 -48 105 -35 167 27 128 118 175 221 112z m309 -325
c38 -32 33 -99 -9 -148 -36 -41 -68 -45 -117 -15 -60 37 -63 100 -5 150 40 35
98 41 131 13z"/>
<path d="M6840 7462 c-31 -15 -437 -400 -679 -645 l-114 -115 -39 25 c-117 73
-332 164 -425 179 -39 6 -43 4 -120 -64 -139 -122 -522 -499 -1633 -1607
-1758 -1752 -2058 -2047 -2078 -2036 -9 5 -66 55 -125 111 -133 125 -186 160
-242 160 -63 0 -139 -44 -226 -131 -99 -99 -119 -137 -119 -227 l0 -69 997
-996 996 -997 77 0 c67 0 82 4 121 29 60 39 181 166 209 221 14 27 24 63 24
90 0 59 -26 97 -173 255 l-112 119 1867 1867 1866 1866 -12 74 c-17 100 -50
189 -132 353 l-69 138 338 342 c186 187 362 369 390 403 52 63 52 63 39 100
-20 56 -107 199 -168 274 -99 123 -255 237 -388 284 -32 11 -42 11 -70 -3z
m145 -257 c99 -70 265 -258 265 -301 0 -14 -260 -285 -501 -521 l-165 -162
-182 182 -183 183 340 338 c226 224 345 335 353 330 7 -4 40 -26 73 -49z
m-1257 -557 c362 -175 732 -537 904 -883 54 -108 62 -138 44 -172 -34 -65
-359 -397 -1958 -1998 l-1688 -1690 -567 567 -568 568 825 826 c454 454 1283
1280 1844 1835 865 857 1022 1009 1040 1003 11 -3 67 -29 124 -56z"/>
<path d="M4644 5558 l-955 -952 453 -453 c249 -249 456 -453 459 -453 3 0 436
434 962 964 l956 963 -62 111 c-129 231 -317 446 -535 612 -70 54 -273 160
-305 160 -11 0 -399 -380 -973 -952z m746 212 c31 -17 24 -47 -21 -89 l-42
-38 24 -17 c27 -19 77 -21 99 -3 9 7 29 30 45 52 58 80 87 105 122 105 41 0
106 -32 127 -62 32 -46 13 -104 -45 -134 -17 -8 -58 -18 -92 -22 -55 -6 -62
-10 -65 -30 -2 -14 7 -37 23 -58 l27 -35 44 41 c29 27 53 40 72 40 58 0 106
-83 80 -137 -14 -30 -40 -34 -115 -18 -45 10 -73 -20 -73 -80 0 -56 14 -64 69
-35 50 25 75 16 97 -36 12 -30 12 -39 0 -69 -20 -48 -52 -54 -109 -21 -24 14
-56 26 -70 26 -38 0 -67 -33 -67 -74 0 -37 12 -46 64 -46 43 0 86 -34 86 -66
0 -98 -107 -129 -150 -43 -12 22 -28 43 -36 46 -18 7 -84 -54 -110 -102 -21
-39 -14 -62 23 -76 38 -14 73 -48 73 -71 0 -23 -57 -84 -87 -93 -34 -9 -75 33
-82 86 -5 36 -10 45 -29 47 -27 4 -132 -42 -132 -58 0 -7 10 -26 22 -42 27
-38 28 -86 2 -105 -10 -7 -36 -19 -57 -25 -33 -10 -41 -9 -64 8 -46 34 -50 49
-30 101 10 27 19 54 20 62 3 20 -119 83 -152 79 -25 -3 -26 -5 -29 -90 -3 -80
-5 -89 -29 -108 -56 -44 -128 -8 -157 77 -29 84 -19 102 69 128 84 24 87 52
23 223 -31 83 -31 84 -62 78 -115 -22 -127 -18 -150 48 -16 48 -8 84 25 108
33 25 65 17 119 -30 49 -41 62 -38 97 24 30 52 39 100 22 120 -7 9 -37 26 -65
39 -62 27 -76 55 -47 94 11 14 32 33 46 41 24 13 30 13 55 0 15 -9 36 -34 46
-58 29 -62 53 -56 154 42 l52 50 -41 36 c-91 79 -26 173 86 125 43 -17 52 -38
31 -70 -9 -13 -16 -28 -16 -33 0 -17 52 -33 87 -26 42 8 53 32 53 113 0 32 5
63 13 70 14 15 93 9 127 -9z"/>
<path d="M5025 5368 c-93 -51 -146 -177 -95 -228 23 -23 98 -27 161 -10 53 15
94 62 93 108 -2 50 -28 99 -67 122 -36 22 -63 25 -92 8z"/>
<path d="M5068 4953 c-41 -25 -53 -64 -34 -101 27 -53 106 -52 142 2 22 35 11
72 -29 96 -39 24 -44 24 -79 3z"/>
<path d="M3504 4405 c-36 -15 -118 -102 -140 -149 -16 -32 -16 -37 -1 -59 32
-49 229 -257 453 -477 240 -236 377 -360 401 -360 29 0 71 31 130 94 78 82 82
96 48 147 -60 91 -633 671 -751 761 -65 48 -101 60 -140 43z"/>
<path d="M3082 3724 c-26 -18 -52 -65 -52 -94 0 -37 568 -600 605 -600 8 0 33
16 55 36 60 54 56 82 -24 175 -84 98 -396 404 -467 457 -60 45 -82 50 -117 26z"/>
<path d="M2631 3284 c-12 -15 -21 -35 -21 -46 0 -36 39 -95 124 -189 108 -118
432 -426 457 -434 30 -10 89 25 107 61 15 32 14 35 -11 72 -62 95 -415 451
-526 530 -56 41 -101 43 -130 6z"/>
<path d="M1120 1665 c-267 -267 -489 -485 -493 -485 -5 0 -42 29 -83 65 -120
105 -182 125 -262 88 -52 -24 -245 -215 -267 -263 -24 -54 -14 -95 41 -172 51
-70 695 -717 818 -821 73 -62 83 -67 125 -67 62 0 138 44 223 131 148 150 156
255 29 393 -25 28 -55 61 -66 74 l-19 23 495 495 494 495 -268 265 c-147 145
-271 264 -275 264 -4 0 -225 -218 -492 -485z"/>
</g>
</svg>
