<?xml version="1.0" standalone="no"?>
<!DOCTYPE svg PUBLIC "-//W3C//DTD SVG 20010904//EN"
 "http://www.w3.org/TR/2001/REC-SVG-20010904/DTD/svg10.dtd">
<svg version="1.0" xmlns="http://www.w3.org/2000/svg"
 width="900.000000pt" height="360.000000pt" viewBox="0 0 900.000000 360.000000"
 preserveAspectRatio="xMidYMid meet">
<metadata>
Created by potrace 1.16, written by Peter Selinger 2001-2019
</metadata>
<g transform="translate(0.000000,360.000000) scale(0.100000,-0.100000)"
fill="#000000" stroke="none">
<path d="M3619 3136 c-130 -36 -295 -164 -424 -330 -56 -72 -62 -77 -91 -71
-22 4 -58 -4 -115 -25 l-84 -31 -17 21 c-10 12 -18 28 -18 35 0 6 -9 20 -19
30 -19 17 -21 16 -40 -16 -12 -19 -21 -50 -21 -69 -1 -31 -5 -37 -42 -55 -54
-26 -81 -77 -86 -163 -6 -89 34 -190 54 -137 4 11 12 4 25 -22 16 -31 17 -39
5 -52 -48 -55 -71 -160 -57 -252 20 -123 103 -239 196 -274 44 -17 148 -18
186 -1 13 6 17 -2 23 -41 23 -172 109 -254 315 -302 123 -29 131 -33 131 -78
0 -28 9 -45 40 -79 22 -24 40 -53 40 -64 0 -23 -59 -80 -96 -93 -13 -5 -27
-20 -30 -33 -9 -36 -76 -88 -144 -113 -82 -30 -142 -98 -171 -193 -34 -112
-24 -223 37 -412 29 -89 55 -151 64 -154 8 -3 21 -14 28 -24 20 -28 54 -19 64
17 9 36 -2 50 -42 51 -21 0 -30 -5 -31 -15 0 -9 -7 7 -15 34 -8 28 -12 57 -10
65 2 8 4 5 5 -7 0 -12 5 -24 11 -28 5 -3 7 -13 4 -23 -5 -14 -4 -15 5 -2 8 10
13 12 19 4 4 -7 18 -8 39 -2 43 11 47 30 38 193 -6 112 -10 139 -27 160 -25
32 -39 32 -65 -4 -23 -30 -44 -163 -37 -231 2 -19 -5 1 -16 45 -21 88 -25 206
-10 273 15 61 50 133 63 125 6 -3 7 -1 3 5 -12 20 4 34 22 20 15 -12 16 -11 4
4 -8 9 -11 21 -8 26 10 17 76 43 89 36 6 -4 9 -4 5 1 -8 9 42 52 55 47 5 -1 6
2 3 7 -4 5 5 18 18 28 13 11 26 28 28 39 2 10 11 18 21 18 9 -1 14 2 11 7 -3
5 -1 9 3 9 5 0 17 -16 27 -35 26 -48 109 -124 182 -167 131 -77 168 -73 214
23 16 33 34 92 41 130 l12 68 54 12 c38 9 69 9 108 2 43 -7 63 -6 92 5 42 16
64 17 106 7 18 -5 41 -2 66 9 47 22 120 18 135 -6 9 -15 5 -24 -23 -50 l-34
-33 24 33 c29 40 17 56 -35 47 -46 -9 -131 -83 -147 -130 l-13 -34 -24 20
c-14 10 -34 19 -46 19 -35 0 -118 -54 -198 -129 -76 -71 -76 -72 -87 -139 -5
-37 -13 -96 -16 -132 -12 -121 -38 -151 -190 -210 -44 -17 -95 -43 -113 -56
l-32 -25 -15 35 c-24 58 -38 183 -30 283 4 62 3 93 -4 93 -18 0 -26 -52 -26
-175 0 -97 4 -134 23 -193 12 -40 20 -77 17 -81 -3 -5 -24 -12 -46 -16 -52 -9
-114 -61 -104 -88 10 -23 38 -22 61 4 10 12 47 34 81 49 35 16 63 35 63 43 0
9 25 24 63 37 147 54 221 103 261 174 20 34 25 60 29 147 5 112 25 177 65 212
42 38 177 117 199 117 27 0 31 -27 6 -37 -23 -9 -131 -103 -137 -120 -10 -24
12 -13 72 37 90 75 172 104 172 60 0 -12 -12 -26 -32 -36 -35 -18 -128 -102
-128 -115 0 -19 25 -7 82 41 46 39 68 50 94 50 19 0 34 -2 34 -5 0 -17 -33
-64 -65 -95 -20 -19 -52 -68 -71 -108 -30 -61 -45 -80 -102 -123 -57 -43 -282
-268 -282 -282 0 -16 47 -14 65 2 11 11 37 22 59 25 53 9 60 15 40 37 -16 18
-18 18 -38 2 -12 -10 -8 -3 8 14 16 18 33 30 38 27 5 -3 7 0 6 7 -2 7 3 13 10
14 6 0 12 5 13 10 0 15 41 55 54 55 7 0 30 13 52 29 l41 29 6 -111 c9 -139 13
-157 37 -157 17 0 18 7 13 98 l-6 97 44 -75 c68 -115 72 -120 90 -120 23 0 22
8 -1 46 -56 92 -141 257 -141 275 0 42 106 237 130 239 3 0 36 -62 74 -138 37
-75 90 -175 118 -221 27 -46 57 -100 66 -120 l16 -36 4 28 c2 20 -20 72 -78
182 l-80 155 52 0 c29 0 122 5 207 11 114 9 155 9 160 0 4 -6 19 -12 34 -13
15 -1 27 -6 27 -9 0 -4 7 -15 16 -23 19 -20 76 -20 208 -1 55 8 103 12 108 9
4 -3 8 -17 8 -31 0 -33 59 -92 94 -95 14 0 32 -1 39 -2 6 -1 20 -13 29 -28 14
-22 25 -28 53 -28 62 0 145 53 166 108 6 16 17 22 41 22 52 0 96 34 123 93 21
49 26 54 76 69 60 19 197 43 303 53 49 5 65 10 57 18 -16 16 -213 -7 -331 -38
-96 -26 -109 -34 -142 -93 -16 -30 -82 -72 -114 -72 -9 0 -27 9 -41 20 -14 11
-33 20 -43 20 -9 0 -25 9 -35 20 -10 11 -26 22 -36 25 -11 4 -19 13 -19 20 0
23 20 28 41 9 32 -29 54 -8 55 55 1 43 5 54 29 72 25 21 27 26 23 81 -2 32 -9
63 -16 70 -8 8 -10 -6 -5 -58 5 -67 5 -70 -21 -83 -23 -13 -28 -12 -46 4 -29
26 -46 103 -41 187 3 68 97 121 172 99 51 -16 114 -88 130 -151 13 -49 29 -58
29 -16 0 18 6 22 38 24 46 3 106 16 242 53 109 30 150 47 150 61 0 15 -33 8
-169 -36 -75 -24 -163 -47 -196 -51 l-60 -6 -38 50 c-50 68 -109 106 -161 105
-56 -1 -114 -30 -144 -73 -25 -35 -27 -36 -96 -36 -125 0 -200 -65 -200 -172
l0 -52 -41 -5 c-203 -24 -210 -25 -232 -51 -13 -15 -23 -32 -23 -39 0 -7 -19
-22 -42 -33 -35 -17 -78 -24 -224 -34 -99 -7 -187 -10 -195 -7 -8 3 -29 35
-46 71 -41 81 -43 130 -8 163 20 18 25 33 25 70 0 43 5 52 50 100 55 58 64 94
34 138 -22 35 -55 39 -126 15 -64 -21 -90 -21 -145 2 -29 12 -35 11 -72 -16
-38 -26 -44 -27 -80 -17 -53 16 -97 15 -137 -4 -33 -16 -36 -16 -74 10 -31 20
-40 33 -40 55 0 16 -7 34 -15 41 -9 7 -15 23 -13 34 3 18 11 21 63 23 80 3
133 25 180 73 22 22 48 40 60 40 40 0 121 48 168 99 113 121 124 248 33 391
l-35 55 37 19 c89 45 162 137 162 204 0 68 -94 170 -171 187 -16 4 -29 10 -29
13 1 14 39 76 40 65 0 -19 37 -16 44 3 13 33 5 69 -20 95 -25 26 -25 29 -10
50 17 25 21 65 7 73 -5 3 -28 -10 -52 -29 -49 -39 -66 -42 -111 -19 -17 9 -40
13 -54 10 -24 -6 -24 -5 -24 62 0 83 -31 209 -65 267 -54 94 -177 170 -329
205 -56 13 -151 11 -207 -4z m234 -61 c167 -43 255 -139 301 -328 17 -67 25
-215 13 -234 -4 -6 -32 -14 -64 -18 -120 -15 -173 -61 -147 -129 4 -11 14 -13
35 -9 112 22 246 -108 305 -297 20 -67 54 -136 101 -206 51 -76 67 -137 52
-199 -10 -42 -23 -60 -83 -118 -50 -47 -83 -71 -111 -78 -58 -14 -95 -30 -95
-40 0 -20 -63 -78 -101 -93 -60 -24 -184 -12 -258 25 -64 33 -79 36 -60 12 15
-17 126 -73 147 -73 15 0 15 -3 0 -35 -10 -21 -8 -32 10 -64 12 -22 20 -45 18
-52 -3 -9 11 -22 37 -35 37 -18 42 -25 45 -57 8 -94 -58 -237 -109 -237 -20 0
-92 39 -182 99 -36 23 -117 123 -117 143 0 5 14 24 31 41 31 31 32 33 20 76
-6 24 -20 56 -30 70 -10 14 -21 45 -24 67 l-7 41 37 -1 c21 -1 38 4 40 12 3 8
-8 12 -35 12 -41 0 -227 62 -301 100 -138 70 -209 236 -151 350 24 46 25 60 6
60 -8 0 -23 -17 -33 -37 -38 -79 -154 -105 -251 -57 -119 59 -184 226 -138
358 28 80 110 136 198 136 82 0 162 -49 172 -106 15 -79 68 -146 87 -111 6 11
20 13 53 10 25 -3 46 -1 50 5 4 6 -10 37 -31 69 -33 51 -38 67 -41 131 -4 67
-1 78 32 147 57 117 47 177 -40 246 -30 24 -54 46 -54 50 0 10 70 91 149 172
140 144 242 196 386 197 45 0 107 -7 138 -15z m-665 -426 c64 -36 95 -81 88
-126 -2 -18 -23 -63 -46 -101 -22 -38 -43 -85 -47 -104 -7 -44 18 -133 52
-182 31 -46 31 -53 1 -33 -22 15 -25 15 -30 0 -12 -31 -35 8 -52 88 -10 43
-21 76 -25 73 -5 -3 -28 5 -51 17 -52 27 -188 38 -240 20 -28 -10 -35 -9 -46
6 -14 19 -12 93 2 125 14 31 -22 34 -53 4 -15 -14 -30 -26 -34 -26 -12 0 -7
80 7 114 19 44 52 66 102 66 48 0 57 6 44 30 -8 16 -5 17 33 13 31 -3 55 3 92
21 72 35 136 34 203 -5z m1144 -102 c43 -2 54 -5 46 -14 -7 -9 -3 -15 15 -22
34 -13 41 -28 17 -34 -14 -3 -20 -14 -20 -31 0 -42 -24 -89 -70 -137 l-43 -44
-7 30 c-4 17 -12 40 -18 52 -10 19 -9 23 9 28 16 5 18 10 8 21 -6 8 -17 14
-23 14 -7 0 -23 11 -36 25 -13 14 -18 25 -12 25 7 0 9 16 5 51 l-6 52 39 -8
c21 -4 64 -8 96 -8z m-152 -66 c0 -5 -7 -11 -15 -15 -19 -7 -20 -26 -1 -26 7
0 26 -10 40 -21 20 -16 24 -24 15 -29 -9 -6 -7 -15 10 -35 21 -27 30 -105 13
-105 -5 0 -23 18 -40 39 -41 51 -121 91 -184 91 -52 0 -56 6 -33 49 16 33 32
41 83 42 20 1 48 5 62 9 35 11 50 11 50 1z m262 -202 c21 -11 49 -36 63 -56
54 -81 19 -185 -80 -233 -57 -28 -62 -24 -105 79 -45 109 -40 169 18 218 29
24 41 23 104 -8z m1176 -1396 c6 -46 6 -74 -1 -88 -10 -19 -10 -19 -18 0 -4
11 -8 36 -8 55 -2 51 -12 63 -45 50 -26 -9 -27 -13 -21 -52 l7 -41 -27 21
c-15 12 -39 22 -53 22 -29 0 -19 -16 12 -22 11 -1 29 -18 39 -36 16 -27 17
-38 9 -57 -15 -32 -52 -41 -89 -21 -48 24 -56 40 -51 101 8 91 63 134 174 135
l62 0 10 -67z m-219 -180 c38 -24 41 -30 35 -58 -8 -39 -19 -45 -78 -45 -26 0
-86 -8 -132 -17 -97 -20 -104 -17 -111 49 -5 42 -4 43 34 56 21 8 71 17 111
21 39 4 75 11 79 14 11 11 19 8 62 -20z m251 -133 c26 -26 25 -42 -4 -77 -30
-36 -102 -57 -144 -42 -32 11 -62 59 -62 98 0 18 6 21 44 21 25 0 48 5 51 10
12 19 93 12 115 -10z"/>
<path d="M3490 2500 c-30 -16 -65 -29 -77 -30 -13 0 -23 -6 -23 -13 0 -8 -11
-19 -25 -25 -30 -14 -65 -68 -65 -101 l0 -25 32 30 c24 22 29 24 23 9 -11 -27
-10 -74 2 -86 6 -6 30 3 68 26 80 48 114 57 223 61 51 2 97 6 102 9 13 8 -5
62 -35 101 -32 41 -92 74 -137 74 -18 0 -58 -13 -88 -30z m137 -7 c31 -14 93
-91 93 -114 0 -3 -37 -9 -82 -11 -90 -6 -159 -26 -221 -65 -51 -32 -72 -18
-39 27 28 37 28 36 -5 53 l-27 14 25 14 c13 7 40 15 59 19 20 3 35 11 35 19 0
15 80 60 108 61 11 0 35 -8 54 -17z"/>
<path d="M3575 2236 c-59 -59 -55 -174 7 -200 40 -17 62 -11 94 27 23 27 26
38 22 88 -5 73 -28 109 -69 109 -18 0 -39 -9 -54 -24z"/>
<path d="M3954 2215 c-13 -20 -15 -39 -11 -81 l6 -55 -42 3 c-23 1 -42 -2 -42
-7 0 -6 29 -13 65 -16 137 -12 195 -84 138 -169 -30 -44 -66 -69 -113 -80 -71
-16 -116 6 -172 85 -30 41 -37 28 -12 -23 30 -61 78 -87 160 -87 55 0 72 4
107 28 70 45 105 151 67 201 -9 12 -11 24 -5 35 5 9 11 24 14 34 3 9 19 20 37
24 22 4 27 8 17 14 -11 7 -10 11 2 19 19 13 -1 13 -33 1 -17 -7 -27 -21 -34
-48 -6 -25 -15 -39 -27 -41 -15 -3 -17 0 -11 14 5 11 10 37 12 59 9 86 -82
153 -123 90z"/>
</g>
</svg>
